<svg width="235" height="35" viewBox="0 0 235 35" fill="none" xmlns="http://www.w3.org/2000/svg">
<path fill-rule="evenodd" clip-rule="evenodd" d="M230.755 28.452C229.124 28.452 227.81 29.7665 227.81 31.3821C227.81 33.0124 229.124 34.3275 230.755 34.3275C232.378 34.3275 233.686 33.0124 233.686 31.3821C233.686 29.7665 232.378 28.452 230.755 28.452ZM230.755 33.9739C229.324 33.9739 228.171 32.8201 228.171 31.3821C228.171 29.9592 229.324 28.8056 230.755 28.8056C232.178 28.8056 233.332 29.9592 233.332 31.3821C233.332 32.8201 232.178 33.9739 230.755 33.9739Z" fill="#ED1C24"/>
<path fill-rule="evenodd" clip-rule="evenodd" d="M232.264 30.6129C232.264 30.3358 232.142 30.0435 231.895 29.9055C231.648 29.7591 231.372 29.7435 231.095 29.7435H229.664V33.0274H230.064V31.5123H230.803L231.74 33.0274H232.218L231.226 31.5123C231.81 31.4973 232.264 31.2586 232.264 30.6129V30.6129ZM230.679 31.1973H230.064V30.0358H231.003C231.41 30.0358 231.856 30.0973 231.856 30.605C231.856 31.2743 231.142 31.1973 230.679 31.1973" fill="#ED1C24"/>
<path fill-rule="evenodd" clip-rule="evenodd" d="M211.279 0.282615C207.844 0.282615 198.179 0.641271 191.808 1.57194V33.643H202.04V22.0446C203.33 22.4743 210.708 23.1905 213.284 23.1905C215.862 23.1905 234.331 22.4025 234.331 11.4506C234.331 -0.289392 214.716 0.282615 211.279 0.282615ZM211.852 17.6066C208.56 17.6066 204.76 17.3206 202.04 16.3181V6.43994C205.476 6.15327 210.922 5.93727 212.498 5.93727C214.072 5.93727 222.235 6.29728 222.304 11.5946C222.375 17.1055 215.146 17.6066 211.852 17.6066Z" fill="#ED1C24"/>
<path fill-rule="evenodd" clip-rule="evenodd" d="M35.4354 14.4597C32.6714 13.8425 22.264 12.1693 19.5427 11.8106C15.9635 11.3813 13.888 10.7373 13.888 8.73332C13.888 6.01332 19.1791 6.48264 23.4807 6.65597C28.7782 6.87064 38.7287 10.164 41.5922 11.3813L44.9563 4.00798C39.4443 1.28798 28.8495 -1.41937e-05 22.1214 -1.41937e-05C17.2526 0.0706525 0.989066 1.21864 0.788026 9.87731C0.644799 16.0348 6.03444 18.2681 12.8854 19.9717C18.7552 21.1884 25.2703 21.7613 29.7088 22.692C35.3948 23.8842 35.3646 27.9176 30.8542 28.3468C23.0714 28.9149 9.87911 25.0545 3.86617 22.0473L0 29.9217C8.37497 34.0034 21.3307 34.9894 25.7719 34.9342C31.4984 34.8624 46.6739 34.2894 46.6739 25.1973C46.6739 19.2129 41.5203 15.8196 35.4354 14.4597" fill="#ED1C24"/>
<path fill-rule="evenodd" clip-rule="evenodd" d="M80.8458 14.0306H59.6572V1.57597H48.7755V33.6462H59.6572V20.4733H80.8458V33.6462H91.7276V1.57597H80.8458V14.0306" fill="#ED1C24"/>
<path fill-rule="evenodd" clip-rule="evenodd" d="M125.258 1.57597H111.87L93.0443 33.6462H101.491L105.858 26.3425H127.1L131.486 33.6462H144.587L125.258 1.57597ZM109.58 19.9004L116.31 8.37597L123.231 19.9004H109.58Z" fill="#ED1C24"/>
<path fill-rule="evenodd" clip-rule="evenodd" d="M188.641 10.9493C188.566 -0.790727 168.669 0.282615 165.233 0.282615C161.797 0.282615 152.133 0.641271 145.762 1.57194V33.643H156.146V6.43994C159.869 6.15327 165.161 5.93727 166.735 5.93727C168.31 5.93727 176.401 5.65194 176.471 11.4506C176.539 16.9629 168.955 17.0337 165.661 17.0337C163.586 17.0337 161.867 16.605 160.078 16.1749L158.145 19.4681L174.181 33.643H189.563L175.605 21.3686C181.529 20.179 188.683 17.4086 188.641 10.9493" fill="#ED1C24"/>
</svg>
