<?xml version="1.0" encoding="UTF-8" standalone="no"?>
<svg
   xmlns:dc="http://purl.org/dc/elements/1.1/"
   xmlns:cc="http://creativecommons.org/ns#"
   xmlns:rdf="http://www.w3.org/1999/02/22-rdf-syntax-ns#"
   xmlns:svg="http://www.w3.org/2000/svg"
   xmlns="http://www.w3.org/2000/svg"
   xmlns:sodipodi="http://sodipodi.sourceforge.net/DTD/sodipodi-0.dtd"
   xmlns:inkscape="http://www.inkscape.org/namespaces/inkscape"
   version="1.1"
   id="svg2"
   xml:space="preserve"
   width="486.66666"
   height="265.60001"
   viewBox="0 0 486.66666 265.60001"
   sodipodi:docname="telkom-indonesia-seeklogo.com.eps"><metadata
     id="metadata8"><rdf:RDF><cc:Work
         rdf:about=""><dc:format>image/svg+xml</dc:format><dc:type
           rdf:resource="http://purl.org/dc/dcmitype/StillImage" /></cc:Work></rdf:RDF></metadata><defs
     id="defs6" /><sodipodi:namedview
     pagecolor="#ffffff"
     bordercolor="#666666"
     borderopacity="1"
     objecttolerance="10"
     gridtolerance="10"
     guidetolerance="10"
     inkscape:pageopacity="0"
     inkscape:pageshadow="2"
     inkscape:window-width="640"
     inkscape:window-height="480"
     id="namedview4" /><g
     id="g10"
     inkscape:groupmode="layer"
     inkscape:label="ink_ext_XXXXXX"
     transform="matrix(1.3333333,0,0,-1.3333333,0,265.6)"><g
       id="g12"
       transform="scale(0.1)"><path
         d="m 2607.01,1349.26 c 167.6,0 303.44,-129.32 303.44,-288.88 0,-159.571 -135.84,-288.892 -303.44,-288.892 -167.6,0 -303.43,129.321 -303.43,288.892 0,159.56 135.83,288.88 303.43,288.88 z m 24.46,145.01 c -259.27,0 -469.42,-202.63 -469.42,-452.82 0,-250.2 210.15,-453.13 469.42,-453.13 259.3,0 469.44,202.93 469.44,453.13 0,250.19 -210.14,452.82 -469.44,452.82"
         style="fill:#545557;fill-opacity:1;fill-rule:nonzero;stroke:none"
         id="path14" /><path
         d="m 2607.07,1349.25 c -20.97,0 -41.41,-1.98 -61.16,-5.82 -19.76,-3.86 -39.21,-9.01 -57.37,-16.32 l -1.02,-1.01 0.72,-1.9 c 33.87,-89.06 74.36,-179.8 136.29,-252.76 62.32,-73.417 142.62,-131.858 228.63,-176.6 l 2.01,-1.039 c 1.25,1.66 2.31,3.258 3.49,4.949 10.91,15.359 20.29,31.922 27.96,49.219 7.69,17.269 13.72,35.351 17.76,54.161 4.06,18.8 6.13,38.3 6.13,58.24 0,19.95 -2.07,39.43 -6.13,58.24 -4.04,18.8 -10.07,36.88 -17.76,54.17 -7.67,17.27 -17.05,33.84 -27.96,49.21 -10.9,15.36 -23.25,29.44 -36.98,42.51 -13.72,13.07 -28.7,25.15 -44.85,35.53 -16.14,10.38 -33.38,19.2 -51.54,26.51 -18.14,7.3 -37.32,13.03 -57.08,16.89 -19.74,3.84 -40.2,5.82 -61.14,5.82 z m 338.64,642.7 c -14.96,0.45 -27.02,-5.78 -40.19,-14.86 -16.15,-11.11 -30.13,-29.13 -38.44,-46.88 -42.5,-90.74 -82.66,-178.18 -123.18,-265.29 -9.97,-21.42 -21.45,-45.36 -38.74,-61.45 -10.83,-10.08 -21.58,-19.17 -35.81,-15.14 -14.73,4.17 -19.65,11.19 -24.75,25.62 -6.51,18.37 -6.11,54.31 -8.17,73.68 -3.99,37.85 0.99,76.76 -8.72,113.58 -4.58,17.29 -20.06,55.74 -43.99,57.07 -36.57,2.04 -62.96,-53.8 -78.62,-85.03 -36.61,-73.01 -48.57,-154.72 -47.76,-273.15 0.09,-12.62 1.02,-37.86 1.02,-37.86 0,0 52.05,17.5 78.48,22.72 15.29,3.01 30.83,5.45 46.6,6.99 15.79,1.55 31.84,2.33 48.05,2.33 16.21,0 32.27,-0.78 48.04,-2.33 15.79,-1.54 31.31,-3.98 46.59,-6.99 30.58,-6.03 60.16,-14.75 88.24,-26.21 28.08,-11.45 54.53,-25.37 79.51,-41.64 24.97,-16.27 48.37,-34.85 69.6,-55.33 21.23,-20.48 40.49,-42.89 57.35,-66.98 16.88,-24.09 31.24,-50.09 43.11,-77.17 11.87,-27.09 21.12,-55.55 27.37,-85.03 3.12,-14.74 5.68,-29.63 7.28,-44.85 1.61,-15.23 2.33,-30.66 2.33,-46.3 0,-15.63 -0.72,-31.07 -2.33,-46.305 -1.6,-15.235 -4.16,-30.383 -7.28,-45.133 -6.25,-29.5 -15.5,-57.93 -27.37,-85.043 -4.77,-10.867 -9.55,-20.739 -15.15,-31.16 l 5.54,-1.149 c 53.24,-10.73 104.49,-15.808 158.71,-12.828 84.22,4.656 172.15,10.297 246.35,50.387 25.04,13.519 58.03,33.601 58.84,62.031 0.73,25.852 -25.36,45.109 -47.48,58.531 -22.26,13.499 -55.17,15.239 -80.95,18.919 -38.34,5.49 -71.29,0.55 -112.1,5.25 -33.24,3.82 -82.59,10.45 -89.7,44.84 -6.78,32.77 33.69,61.09 57.66,84.45 48.33,47.14 109.2,79.3 162.2,121.15 61.14,48.28 119.86,92.03 175.29,146.77 17.64,17.39 34.65,30.82 47.78,51.83 9.33,14.95 20.54,38.36 18.92,55.91 -1.1,11.68 -7.48,20.49 -17.17,27.08 -15.78,10.7 -32.82,9.45 -51.85,9.32 -19.68,-0.14 -36.17,-4.84 -54.75,-11.36 -51.11,-17.94 -99.31,-43.65 -147.93,-67.56 -35.94,-17.65 -67.66,-45.4 -106.29,-55.92 -23.2,-6.3 -56.8,-21.89 -71.93,-3.19 -14.74,18.18 8.46,46.25 17.47,67.84 18.53,44.37 48.58,83.25 73.98,124.05 28.46,45.76 61.86,88.27 87.93,135.41 12.81,23.18 28.93,46.15 33.49,72.22 3.28,18.74 3.84,39.93 -4.94,56.8 -5.05,9.67 -14.42,18.44 -25.06,20.96 -19.22,4.55 -40.49,-3.93 -58.52,-11.94 -26.52,-11.77 -62.34,-37.58 -82.41,-58.53 -68.24,-71.22 -123.39,-133.86 -188.12,-200.06 -22.18,-22.66 -51.93,-63.09 -80.98,-50.38 -20.09,8.8 -15.92,42 -13.38,63.49 7.71,65.19 21.63,132.14 29.13,198.59 3.53,31.33 10.25,65.45 7.56,94.35 -1.47,15.95 -3.26,31.2 -12.53,44.27 -6.57,9.28 -19.9,14.27 -31.14,16.01 -2.34,0.28 -4.67,0.45 -6.81,0.51 l 0.12,0.09"
         style="fill:#d61e25;fill-opacity:1;fill-rule:nonzero;stroke:none"
         id="path16" /><path
         d="m 3048.76,833.809 c 5.6,10.421 10.39,20.332 15.15,31.203 11.87,27.109 21.12,55.539 27.38,85.039 3.11,14.738 5.67,29.898 7.27,45.129 1.62,15.23 2.33,30.68 2.33,46.31 0,15.64 -0.71,31.07 -2.33,46.3 -1.6,15.23 -4.16,30.1 -7.27,44.85 -6.26,29.47 -15.51,57.94 -27.38,85.03 -11.89,27.08 -26.23,53.08 -43.1,77.17 -16.87,24.09 -36.12,46.49 -57.36,66.97 -21.23,20.49 -44.63,39.07 -69.6,55.33 -24.98,16.28 -51.43,30.19 -79.5,41.65 -28.09,11.46 -57.67,20.18 -88.25,26.21 -15.28,3.01 -30.8,5.44 -46.59,6.98 -15.77,1.56 -31.83,2.34 -48.04,2.34 -16.21,0 -32.26,-0.78 -48.05,-2.34 -15.79,-1.54 -31.31,-3.97 -46.6,-6.98 -26.43,-5.22 -53.88,-13.12 -78.48,-22.43 2.99,-36.95 13.36,-93.83 29.24,-136.47 l 1.2,0.47 c 18.15,7.31 37.31,13.04 57.07,16.89 19.76,3.85 40.19,5.83 61.16,5.83 20.95,0 41.39,-1.98 61.14,-5.83 19.76,-3.85 38.94,-9.58 57.09,-16.89 18.15,-7.31 35.4,-16.11 51.54,-26.5 16.15,-10.38 31.11,-22.46 44.84,-35.52 13.74,-13.07 26.09,-27.15 36.99,-42.52 10.91,-15.37 20.28,-31.93 27.96,-49.22 7.68,-17.27 13.71,-35.35 17.76,-54.15 4.03,-18.81 6.11,-38.31 6.11,-58.25 0,-19.95 -2.08,-39.43 -6.11,-58.24 -4.05,-18.799 -10.08,-36.889 -17.76,-54.158 -7.68,-17.293 -17.05,-33.84 -27.96,-49.223 -1.21,-1.687 -2.38,-3.238 -3.6,-4.918 63.97,-29.461 133.67,-47.789 193.75,-60.062"
         style="fill:#ffffff;fill-opacity:1;fill-rule:nonzero;stroke:none"
         id="path18" /><path
         d="m 475.574,847.238 c 59.297,0 86.406,-42.066 86.406,-79.199 H 387.434 c 0,35.973 30.55,79.199 88.132,79.199 z m 813.976,0.571 c 60.73,0 110.03,-51.129 110.03,-114.348 0,-63.223 -49.3,-114.641 -110.03,-114.641 -60.75,0 -110.04,51.418 -110.04,114.641 0,63.219 49.29,114.348 110.04,114.348 z m -809.37,59.613 c -104.106,0 -170.223,-78.32 -170.223,-174.82 0,-96.52 72.543,-171.661 171.668,-171.661 71.559,0 99.637,12.36 130.469,43.188 10.433,10.453 19.527,37.512 4.328,52.723 -12.051,12.046 -34.981,7.507 -44.078,0.859 -27.41,-20.09 -54.137,-34.281 -90.727,-34.281 -51.644,0 -90.976,36.761 -93.32,80.082 H 585.02 c 22.668,0 32.335,6.027 40.332,12.09 6.296,4.769 14.101,20.898 14.101,28.796 0,85.782 -60.797,163.043 -159.273,163.043 z m 1410.75,0.289 c -10.31,0.16 -20.53,-0.551 -30.54,-2.57 -18.35,-3.731 -36.18,-10.821 -52.41,-20.18 -12.85,-7.379 -34.85,-24.191 -34.85,-24.191 0,0 -22.66,31.839 -65.1,43.21 -9.33,2.481 -18.94,5.051 -28.51,5.122 -17.48,0.148 -35.63,-1.411 -52.14,-7.141 -18.99,-6.602 -50.98,-32.262 -50.98,-32.262 V 872 c 0,19.988 -15.44,31.98 -34.85,31.98 -23.86,0 -34.85,-16.019 -34.85,-36.011 V 601.238 c 0,-19.968 15.45,-36 34.85,-36 19.41,0 35.14,16.032 35.14,36 V 771.77 c 0,25.152 15.85,47.378 37.15,60.781 9.2,5.758 24.66,8.16 35.43,9.5 11.73,1.437 22.06,1.289 38.6,-2.602 20.25,-5.57 42.34,-30.097 42.34,-67.398 V 601.262 c 0,-19.992 15.44,-36.024 34.85,-36.024 19.41,0 35.14,16.032 35.14,36.024 v 178.847 c 0,17.789 17.6,39.961 31.98,50.422 12.9,9.391 28.68,12.668 44.64,12.957 12.97,0.231 25.68,-0.347 38.01,-8.656 9.27,-6.223 17.85,-16.043 23.06,-25.91 6.04,-11.492 8.63,-15.242 8.63,-28.242 l 0.29,-2 V 601.238 c 0,-19.968 15.45,-36 34.84,-36 19.41,0 35.16,19.242 35.16,36 v 189.953 c 0,34.86 -11.81,54.149 -21.91,67.278 -10.14,12.551 -23.63,22.441 -37.44,30.812 -11.1,6.739 -23.27,12.34 -36,14.969 -9.98,2.082 -20.22,3.301 -30.53,3.461 z m -600.84,2.027 c -99.11,0 -179.44,-78.328 -179.44,-174.84 0,-96.5 80.33,-174.558 179.44,-174.558 99.12,0 179.45,78.058 179.45,174.558 0,96.512 -80.33,174.84 -179.45,174.84 z M 29.9531,1011.41 C 13.4258,1011.41 0,997.246 0,979.43 0,961.629 13.4258,947.18 29.9531,947.18 H 151.793 V 598.66 c 0,-18.629 15.437,-33.422 34.852,-33.422 19.406,0 35.132,14.793 35.132,33.422 v 348.52 h 126.45 c 16.531,0 29.957,14.449 29.957,32.25 0,17.816 -13.426,31.98 -29.957,31.98 H 29.957 Z m 820.5899,26.21 c -19.406,0 -35.133,-15.86 -35.133,-35.72 V 600.98 c 0,-19.871 15.727,-35.742 35.133,-35.742 19.414,0 34.852,15.871 34.852,35.742 v 51.258 l 54.152,51.844 108.013,-128.473 c 10.29,-13.39 35.69,-12.539 47.53,-2.019 12.95,11.539 10.86,35.57 0.57,48.98 l -104.258,131.039 99.948,95.922 c 15.77,15.77 12.16,36.899 -1.16,48.399 -16.69,14.41 -36.37,10.269 -48.67,-2.02 L 885.406,748.73 v 253.16 c 0,19.87 -15.449,35.72 -34.855,35.72 z m -136.227,0 c -19.414,0 -34.851,-15.86 -34.851,-35.72 V 600.98 c 0,-19.871 15.437,-35.742 34.851,-35.742 19.407,0 35.133,15.871 35.133,35.742 v 400.92 c 0,19.86 -15.726,35.72 -35.133,35.72"
         style="fill:#1a1817;fill-opacity:1;fill-rule:nonzero;stroke:none"
         id="path20" /><path
         d="m 2858.21,168.789 c 18.86,1.043 38.96,-1.418 57.62,-4.328 9.35,-1.43 22.55,-3.922 34.28,-6.32 0.09,-1.68 1.73,-29.762 -3.46,-42.922 -7.03,-17.8088 -18.22,-37.7581 -34.86,-47.8206 -18.08,-10.9296 -42.8,-13.3164 -63.94,-12.957 -16.81,0.3086 -34.78,4.207 -48.38,14.1094 -12.63,9.2109 -20.05,21.5976 -21.33,37.1682 -1.49,18.332 3.29,35.019 17.29,46.941 16.35,13.93 41.36,14.949 62.78,16.129 z M 973.91,286.301 c 60.74,0 110.03,-51.11 110.03,-114.34 0,-63.211 -46.99,-107.7305 -107.733,-107.7305 -60.738,0 -107.723,44.5195 -107.723,107.7305 0,63.23 44.68,114.34 105.426,114.34 z m 394.02,1.148 c 60.75,0 110.03,-51.109 110.03,-114.34 0,-63.211 -49.28,-114.6285 -110.03,-114.6285 -60.74,0 -110.03,51.4175 -110.03,114.6285 0,63.231 49.28,114.34 110.03,114.34 z m 734.19,0.582 c 59.31,0 86.42,-41.761 86.42,-78.922 h -174.86 c 0,36.012 30.84,78.922 88.44,78.922 z m 528.83,55.59 c -18.46,0 -33.13,-14.621 -33.13,-32.82 V 37.7383 c 0,-18.2188 14.67,-32.83986 33.13,-32.83986 18.44,0 33.41,14.62106 33.41,32.83986 V 310.801 c 0,18.199 -14.97,32.82 -33.41,32.82 z m -874.47,2.309 c -14.05,-0.27 -30.72,-1.539 -41.48,-5.192 -21.28,-7.226 -54.72,-30.519 -54.72,-30.519 v 2.312 c 0,11.641 -3.64,32.239 -32.55,32.239 -23.8,0 -31.1,-19.461 -31.1,-39.45 V 38.5898 c 0,-19.9882 15.44,-35.98824 34.85,-35.98824 19.4,0 35.13,16.00004 35.13,35.98824 V 209.109 c 0,25.172 15.86,47.391 37.16,60.77 9.18,5.781 24.66,8.191 35.43,9.512 11.73,1.449 22.05,1.3 38.59,-2.582 20.31,-5.579 48.97,-30.11 48.97,-67.411 V 38.5898 c 0,-19.9687 15.45,-35.98824 34.86,-35.98824 19.4,0 35.13,16.01954 35.13,35.98824 V 216.309 c 0,39.023 -11.12,65.043 -26.5,84.972 -15.81,20.481 -43.94,35.028 -69.12,41.77 l -2.02,0.281 c -9.82,2.309 -20.05,2.508 -29.67,2.598 -3.79,0.019 -8.27,0.09 -12.96,0 z m -1142.902,0 c -14.051,-0.27 -30.711,-1.539 -41.473,-5.192 -21.3,-7.226 -54.726,-30.519 -54.726,-30.519 v 2.312 c 0,11.641 -3.652,32.239 -32.543,32.239 -23.805,0 -31.113,-19.461 -31.113,-39.45 V 38.5898 c 0,-19.9882 15.449,-35.98824 34.851,-35.98824 19.406,0 35.137,16.00004 35.137,35.98824 V 209.109 c 0,25.172 15.855,47.391 37.164,60.77 9.184,5.781 24.648,8.191 35.418,9.512 11.727,1.449 22.062,1.3 38.602,-2.582 20.296,-5.579 48.968,-30.11 48.968,-67.411 V 38.5898 c 0,-19.9687 15.438,-35.98824 34.848,-35.98824 19.41,0 35.133,16.01954 35.133,35.98824 V 216.309 c 0,39.023 -11.11,65.043 -26.496,84.972 -15.801,20.481 -43.942,35.028 -69.129,41.77 l -2.008,0.281 c -9.824,2.309 -20.043,2.508 -29.672,2.598 -3.785,0.019 -8.273,0.09 -12.961,0 z m 2241.752,1.441 c -23.25,0.309 -47.08,-1.871 -69.13,-9.211 -12.3,-4.109 -25.28,-9.371 -33.99,-19.019 -6.65,-7.371 -13.38,-17.551 -11.81,-27.36 1.39,-8.722 5.88,-16.011 17.58,-19.89 21.05,-6.93 35.34,6.199 63.91,13.828 32.14,8.621 73.87,8.172 100.26,-12.09 18.13,-13.91 24.88,-58.027 25.63,-63.649 -7.1,2.219 -16.02,4.918 -22.74,6.051 -16.84,2.821 -33.97,3.239 -51,3.16 -22.14,-0.07 -44.73,0.129 -66.24,-4.589 -21.15,-4.672 -43.3,-9.161 -59.9,-23.063 -15.05,-12.59 -26.12,-31.598 -31.69,-50.398 -6.5,-21.93 -5.84,-51.7191 2.88,-72.8793 9.76,-23.6797 28.6,-36.7929 50.98,-49.2422 21.48,-11.94919 47.43,-17.24997 72.01,-16.99997 29.51,0.30078 60.55,8.58987 85.24,24.76957 9.4,6.1523 21.04,23.9101 21.04,23.9101 l -0.28,-14.6797 c -0.51,-17.6289 14.96,-32.84762 33.39,-32.84762 18.46,0 33.14,14.61722 33.14,32.84762 v 88.9925 c 0,0 -0.23,85.84 -7.48,129.91 -3.39,20.547 -19,41.687 -33.71,56.457 -12.73,12.762 -27.04,18.543 -42.35,23.891 -24.13,8.441 -50.18,11.781 -75.74,12.101 z m -748.6,1.149 c -104.09,0 -170.5,-78.321 -170.5,-174.84 0,-96.5081 72.55,-171.66047 171.65,-171.66047 71.56,0 99.65,12.35937 130.47,43.19927 10.46,10.4414 19.54,37.5 4.33,52.7226 -12.05,12.0386 -34.97,7.5276 -44.08,0.8594 -27.41,-20.1016 -54.13,-34.2891 -90.72,-34.2891 -51.64,0 -90.97,36.7773 -93.31,80.0903 h 196.73 c 22.66,0 32.31,6.019 40.32,12.097 6.29,4.77 14.11,20.891 14.11,28.801 0,85.789 -60.52,163.02 -159,163.02 z m -738.21,0.871 c -99.12,0 -179.45,-78.321 -179.45,-174.852 C 1189.07,78.0391 1269.39,0 1368.52,0 c 99.1,0 179.44,78.0391 179.44,174.539 0,96.531 -80.33,174.852 -179.44,174.852 z m 1042.34,0.289 c -23.04,-0.879 -47.07,-3.821 -67.69,-14.11 -16.79,-8.379 -32.26,-21.332 -42.34,-37.148 -9.23,-14.512 -14.58,-32.371 -14.4,-49.551 0.18,-17.312 5.68,-35.32 15.55,-49.543 9.99,-14.387 26.11,-23.879 41.48,-32.269 20.9,-11.387 45.05,-15.411 67.4,-23.61 17.58,-6.461 38.38,-7.789 52.42,-20.168 8.09,-7.14 14.96,-17.722 15.26,-28.5115 0.33,-11.6406 -7.01,-21.7812 -15.84,-29.3711 -10.41,-8.9492 -28.35,-9.5195 -42.06,-9.7968 -16,-0.3399 -28.83,2.2304 -44.07,7.1992 -10.06,3.2812 -18.65,7.8594 -28.22,12.3906 -7.77,3.6602 -14.79,8.8594 -22.75,12.0899 -7.74,3.1406 -16.05,8.7578 -24.19,6.9101 -8.96,-2.0195 -16.62,-9.8203 -20.46,-18.1406 -3.24,-7.0899 -1.69,-12.0391 1.15,-19.3008 3.75,-9.4805 12.29,-16.9492 20.46,-23.0391 12.38,-9.25 30.43,-16.8203 45.21,-21.332 22.45,-6.80077 41.63,-10.66015 65.11,-10.35937 24.13,0.32031 48.18,1.78906 70.86,10.08207 21.02,7.707 34.73,19.539 46.93,38.3203 11.02,16.9375 15.05,33.3789 13.83,53.5661 -0.83,13.582 -1.23,30.16 -8.35,41.762 -8.02,13.082 -21.07,24.27 -33.99,32.539 -18.05,11.57 -36.09,16.242 -55.88,24.481 -15.54,6.492 -31.62,12.039 -46.94,19.019 -9.7,4.41 -21.11,6.75 -28.52,14.402 -5.84,6.008 -11.01,14.387 -10.65,22.75 0.4,9.618 6.78,19.161 14.4,25.071 9.91,7.699 23.72,9.808 36.29,10.078 11.43,0.238 24.25,-3.141 35.13,-6.641 9.58,-3.058 17.92,-9.301 27.36,-12.668 11.34,-4.043 21.11,-10.582 33.13,-10.371 10.13,0.192 23.09,1.43 28.81,9.801 5.46,8 3.27,20.48 -1.16,29.09 -5.06,9.859 -16.43,17.879 -25.92,23.609 -12.98,7.86 -27.17,11.43 -41.76,15.559 -17.97,5.101 -36.92,7.929 -55.59,7.211 z M 347.359,457.691 c -18.449,0 -33.121,-15.761 -33.121,-35.421 V 40.3203 c 0,-19.6797 14.672,-35.42186 33.121,-35.42186 18.461,0 33.422,15.74216 33.422,35.42186 V 422.27 c 0,19.66 -14.961,35.421 -33.422,35.421 z m 769.621,16.129 c -18.45,0 -33.12,-14.879 -33.12,-33.422 V 294.09 c -23.04,30.879 -58.49,54.941 -112.907,52.992 -99.058,-3.531 -171.387,-69.113 -171.387,-173.672 0,-96.5194 67.661,-172.26156 166.774,-172.26156 56.96,0 93.71,26.70316 117.52,59.05076 V 37.1484 c 0,-18.5078 14.67,-33.3984 33.12,-33.3984 18.44,0 33.41,14.8906 33.41,33.3984 V 440.398 c 0,18.524 -14.97,33.403 -33.41,33.403 v 0.019"
         style="fill:#1a1817;fill-opacity:1;fill-rule:nonzero;stroke:none"
         id="path22" /></g></g></svg>
