<svg width="101" height="29" viewBox="0 0 101 29" fill="none" xmlns="http://www.w3.org/2000/svg">
<path d="M7.00391 19.3516V29H0.148438V0.5625H11.4961C13.6706 0.5625 15.5911 0.966146 17.2578 1.77344C18.9375 2.56771 20.2331 3.70703 21.1445 5.19141C22.069 6.66276 22.5312 8.33594 22.5312 10.2109C22.5312 12.9844 21.5352 15.2044 19.543 16.8711C17.5638 18.5247 14.8424 19.3516 11.3789 19.3516H7.00391ZM7.00391 14.0586H11.4961C12.8242 14.0586 13.8333 13.7266 14.5234 13.0625C15.2266 12.3984 15.5781 11.4609 15.5781 10.25C15.5781 8.92188 15.2201 7.86068 14.5039 7.06641C13.7878 6.27214 12.8112 5.86849 11.5742 5.85547H7.00391V14.0586ZM33.0586 19.3516V29H26.2031V0.5625H37.5508C39.7253 0.5625 41.6458 0.966146 43.3125 1.77344C44.9922 2.56771 46.2878 3.70703 47.1992 5.19141C48.1237 6.66276 48.5859 8.33594 48.5859 10.2109C48.5859 12.9844 47.5898 15.2044 45.5977 16.8711C43.6185 18.5247 40.8971 19.3516 37.4336 19.3516H33.0586ZM33.0586 14.0586H37.5508C38.8789 14.0586 39.888 13.7266 40.5781 13.0625C41.2812 12.3984 41.6328 11.4609 41.6328 10.25C41.6328 8.92188 41.2747 7.86068 40.5586 7.06641C39.8424 6.27214 38.8659 5.86849 37.6289 5.85547H33.0586V14.0586ZM52.2578 29V0.5625H61.418C63.931 0.5625 66.1901 1.13542 68.1953 2.28125C70.2005 3.41406 71.763 5.02214 72.8828 7.10547C74.0156 9.17578 74.5885 11.5 74.6016 14.0781V15.3867C74.6016 17.9909 74.0482 20.3281 72.9414 22.3984C71.8477 24.4557 70.2982 26.0703 68.293 27.2422C66.3008 28.401 64.0742 28.987 61.6133 29H52.2578ZM59.1133 5.85547V23.7266H61.4961C63.4622 23.7266 64.9727 23.0299 66.0273 21.6367C67.082 20.2305 67.6094 18.1471 67.6094 15.3867V14.1562C67.6094 11.4089 67.082 9.33854 66.0273 7.94531C64.9727 6.55208 63.4362 5.85547 61.418 5.85547H59.1133ZM78.1172 29V0.5625H88.332C91.9909 0.5625 94.7708 1.23307 96.6719 2.57422C98.5859 3.91536 99.543 5.86198 99.543 8.41406C99.543 9.88542 99.2044 11.1419 98.5273 12.1836C97.8503 13.2253 96.8542 13.9935 95.5391 14.4883C97.0234 14.8789 98.1628 15.6081 98.957 16.6758C99.7513 17.7435 100.148 19.0456 100.148 20.582C100.148 23.3685 99.263 25.4648 97.4922 26.8711C95.7344 28.2643 93.1237 28.974 89.6602 29H78.1172ZM84.9727 16.9102V23.7266H89.4648C90.7018 23.7266 91.6523 23.4466 92.3164 22.8867C92.9805 22.3138 93.3125 21.513 93.3125 20.4844C93.3125 18.1146 92.1341 16.9232 89.7773 16.9102H84.9727ZM84.9727 12.418H88.5469C90.0443 12.4049 91.112 12.1315 91.75 11.5977C92.388 11.0638 92.707 10.276 92.707 9.23438C92.707 8.03646 92.362 7.17708 91.6719 6.65625C90.9818 6.1224 89.8685 5.85547 88.332 5.85547H84.9727V12.418Z" fill="black"/>
</svg>
